<?xml version="1.0" encoding="iso-8859-1"?>
<!-- Uploaded to: SVG Repo, www.svgrepo.com, Generator: SVG Repo Mixer Tools -->
<svg height="800px" width="800px" version="1.1" id="Layer_1" xmlns="http://www.w3.org/2000/svg" xmlns:xlink="http://www.w3.org/1999/xlink" 
	 viewBox="0 0 512.001 512.001" xml:space="preserve">
<path style="fill:#DBDDDD;" d="M367.113,352.932h-9.386c-24.068,0-43.649,19.581-43.649,43.648v20.013V455.1v13.253
	c0,14.996-12.199,27.195-27.194,27.195c-14.996,0-27.196-12.199-27.196-27.195V455.1v-38.507v-24.6c0-4.544-3.682-8.226-8.226-8.226
	s-8.226,3.682-8.226,8.226v24.6V455.1v13.253c0,24.067,19.581,43.648,43.649,43.648c24.066,0,43.647-19.581,43.647-43.648V455.1
	v-38.507V396.58c0-14.996,12.2-27.195,27.196-27.195h9.386c4.543,0,8.226-3.682,8.226-8.226
	C375.339,356.614,371.657,352.932,367.113,352.932z"/>
<path style="fill:#547475;" d="M222.528,262.93v37.888v35.235v61.54c0,8.03,6.509,14.539,14.539,14.539h29.642
	c8.029,0,14.539-6.509,14.539-14.539v-61.54v-35.235V262.93H222.528z"/>
<path style="opacity:0.15;fill:#231F20;enable-background:new    ;" d="M240.077,397.594v-61.54v-35.235V262.93h-17.55v37.888
	v35.235v61.54c0,8.03,6.509,14.539,14.539,14.539h17.55C246.586,412.132,240.077,405.625,240.077,397.594z"/>
<path style="fill:#DBDDDD;" d="M346.075,175.183c0,7.27-5.892,13.162-13.162,13.162H168.315c-7.27,0-13.162-5.892-13.162-13.162
	V13.162c0-7.27,5.892-13.162,13.162-13.162h164.598c7.27,0,13.162,5.892,13.162,13.162V175.183z"/>
<path style="opacity:0.15;fill:#231F20;enable-background:new    ;" d="M172.702,175.183V13.162c0-7.27,5.892-13.162,13.162-13.162
	h-17.55c-7.27,0-13.162,5.892-13.162,13.162v162.021c0,7.27,5.892,13.162,13.162,13.162h17.55
	C178.594,188.345,172.702,182.453,172.702,175.183z"/>
<g>
	<path style="fill:#F5F5F5;" d="M234.716,95.845c0,7.269-5.893,13.162-13.162,13.162h-16.831c-7.27,0-13.162-5.893-13.162-13.162
		V48.68c0-7.269,5.892-13.162,13.162-13.162h16.831c7.269,0,13.162,5.893,13.162,13.162V95.845z"/>
	<path style="fill:#F5F5F5;" d="M312.214,95.845c0,7.269-5.892,13.162-13.162,13.162h-16.831c-7.269,0-13.162-5.893-13.162-13.162
		V48.68c0-7.269,5.893-13.162,13.162-13.162h16.831c7.27,0,13.162,5.893,13.162,13.162V95.845z"/>
</g>
<path style="fill:#688787;" d="M351.404,140.983h-23.066h-24.679H149.824c-7.269,0-13.162,5.892-13.162,13.162v133.511
	c0,7.27,5.891,13.162,13.162,13.162h201.579c7.269,0,13.162-5.892,13.162-13.162V154.145
	C364.566,146.875,358.672,140.983,351.404,140.983z"/>
<path style="opacity:0.15;fill:#231F20;enable-background:new    ;" d="M154.212,287.657V154.145c0-7.27,5.893-13.162,13.162-13.162
	h-17.55c-7.269,0-13.162,5.892-13.162,13.162v133.511c0,7.27,5.891,13.162,13.162,13.162h17.55
	C160.103,300.819,154.212,294.927,154.212,287.657z"/>
</svg>